<?xml version="1.0" standalone="no"?><!DOCTYPE svg PUBLIC "-//W3C//DTD SVG 1.1//EN" "http://www.w3.org/Graphics/SVG/1.1/DTD/svg11.dtd"><svg t="1599353851767" class="icon" viewBox="0 0 1055 1024" version="1.1" xmlns="http://www.w3.org/2000/svg" p-id="5275" xmlns:xlink="http://www.w3.org/1999/xlink" width="206.0546875" height="200"><defs><style type="text/css"></style></defs><path d="M255.682611 559.357629h73.148454v83.587039h-73.148454zM433.310945 444.407818l7.836775 39.183874h222.047174v-47.020648z" fill="#C0EAFF" p-id="5276" style="user-select: auto;" data-spm-anchor-id="a313x.7781069.0.i26" class=""></path><path d="M496.005143 601.143312m-47.020648 0a47.020648 47.020648 0 1 0 94.041296 0 47.020648 47.020648 0 1 0-94.041296 0Z" fill="#C0EAFF" p-id="5277" style="user-select: auto;" data-spm-anchor-id="a313x.7781069.0.i25" class="selected"></path><path d="M665.796703 598.541503m-44.403165 0a44.403165 44.403165 0 1 0 88.80633 0 44.403165 44.403165 0 1 0-88.80633 0Z" fill="#C0EAFF" p-id="5278" style="user-select: auto;" data-spm-anchor-id="a313x.7781069.0.i27" class="selected"></path><path d="M663.17922 488.873678a15.673549 15.673549 0 0 1-15.673549-15.673549v-26.09646H448.984495v26.09646a15.673549 15.673549 0 0 1-31.347099 0v-41.770009a15.673549 15.673549 0 0 1 15.673549-15.67355h229.883949a15.673549 15.673549 0 0 1 15.673549 15.67355v41.770009a15.673549 15.673549 0 0 1-15.689223 15.673549z" fill="#d6204b" p-id="5279" data-spm-anchor-id="a313x.7781069.0.i22" class="" style="user-select: auto;"></path><path d="M537.14821 440.567799a15.673549 15.673549 0 0 1-15.673549-15.67355v-120.184776a15.673549 15.673549 0 0 1 15.673549-15.673549h57.474905a15.673549 15.673549 0 0 1 0 31.347098h-41.801356v104.511227a15.673549 15.673549 0 0 1-15.673549 15.67355zM324.959699 406.164358c-30.375339 0-46.691504-11.770836-59.810265-21.221986-11.849203-8.542084-21.221986-15.313058-41.472211-15.313058a15.673549 15.673549 0 0 1 0-31.347098c30.375339 0 46.691504 11.770836 59.810264 21.221986 11.849203 8.542084 21.221986 15.313058 41.472212 15.313057 20.265899 0 29.638682-6.7553 41.487885-15.313057 13.103087-9.466824 29.434926-21.221986 59.810264-21.221986 30.391012 0 46.707177 11.770836 59.810265 21.237659l5.219292 3.714631a15.673549 15.673549 0 0 1-17.852173 25.782989l-5.720846-4.075123c-11.849203-8.542084-21.221986-15.313058-41.472211-15.313058s-29.623008 6.7553-41.472212 15.313058c-13.103087 9.45115-29.419252 21.221986-59.810264 21.221986z" fill="#d6204b" p-id="5280" data-spm-anchor-id="a313x.7781069.0.i20" class="" style="user-select: auto;"></path><path d="M730.262012 406.164358c-30.406686 0-46.738524-11.770836-59.857285-21.221986-11.864877-8.557758-21.253333-15.313058-41.534906-15.313058-15.845958 0-24.779882 4.216185-32.036735 8.777188a15.673549 15.673549 0 1 1-16.64531-26.550993c10.078092-6.31644 24.732861-13.573294 48.697718-13.573293 30.406686 0 46.738524 11.770836 59.857285 21.221986 11.864877 8.557758 21.253333 15.313058 41.534906 15.313057 20.297246 0 29.670029-6.7553 41.550579-15.313057 13.118761-9.45115 29.450599-21.221986 59.857285-21.221986a15.673549 15.673549 0 0 1 0 31.347098c-20.281573 0-29.670029 6.7553-41.534905 15.313058-13.134434 9.45115-29.466273 21.221986-59.888632 21.221986zM498.606952 665.310823a63.63461 63.63461 0 0 1-63.556243-63.571916 63.63461 63.63461 0 0 1 63.556243-63.556243 63.63461 63.63461 0 0 1 63.571916 63.556243 63.63461 63.63461 0 0 1-63.571916 63.571916z m0-95.78106c-17.758131 0-32.209144 14.451013-32.209144 32.209144s14.451013 32.224817 32.209144 32.224817 32.224817-14.451013 32.224818-32.224817-14.451013-32.209144-32.224818-32.209144zM664.056939 665.310823a63.63461 63.63461 0 0 1-63.571916-63.571916c0-35.046056 28.510186-63.556243 63.571916-63.556243s63.571916 28.510186 63.571916 63.556243a63.63461 63.63461 0 0 1-63.571916 63.571916z m0-95.78106c-17.758131 0-32.224817 14.451013-32.224817 32.209144s14.451013 32.224817 32.224817 32.224817 32.224817-14.451013 32.224818-32.224817-14.466686-32.209144-32.224818-32.209144z" fill="#d6204b" p-id="5281" data-spm-anchor-id="a313x.7781069.0.i21" class="" style="user-select: auto;"></path><path d="M707.598059 734.964076h-23.510324a15.673549 15.673549 0 0 1 0-31.347098h23.510324c56.174001 0 101.878071-45.70407 101.878071-101.878071s-45.70407-101.878071-101.878071-101.878071H392.810494a43.149281 43.149281 0 0 0-43.102261 43.102261v13.714355a15.673549 15.673549 0 0 1-15.673549 15.67355h-67.2552v58.77581h67.2552a15.673549 15.673549 0 0 1 15.673549 15.673549v13.714356a43.149281 43.149281 0 0 0 43.102261 43.102261h201.138659a15.673549 15.673549 0 0 1 0 31.347098H392.810494a74.543401 74.543401 0 0 1-74.433686-72.490165h-67.270874a15.673549 15.673549 0 0 1-15.673549-15.67355v-90.122909a15.673549 15.673549 0 0 1 15.673549-15.673549h67.270874a74.527727 74.527727 0 0 1 74.433686-72.490166h314.771892c73.461926 0 133.22517 59.763244 133.225169 133.22517s-59.74757 133.22517-133.209496 133.225169z" fill="#d6204b" p-id="5282" data-spm-anchor-id="a313x.7781069.0.i19" class="" style="user-select: auto;"></path><path d="M251.105934 709.494559a15.673549 15.673549 0 0 1-15.673549-15.67355v-184.164205a15.673549 15.673549 0 0 1 31.347099 0v184.164205a15.673549 15.673549 0 0 1-15.67355 15.67355z" fill="#d6204b" p-id="5283" style="user-select: auto;" data-spm-anchor-id="a313x.7781069.0.i23" class=""></path><path d="M334.034684 662.473911a15.673549 15.673549 0 0 1-15.67355-15.67355v-90.122909a15.673549 15.673549 0 0 1 31.347099 0v90.122909a15.673549 15.673549 0 0 1-15.673549 15.67355z" fill="#d6204b" p-id="5284" style="user-select: auto;" data-spm-anchor-id="a313x.7781069.0.i24" class=""></path></svg>